<svg xmlns="http://www.w3.org/2000/svg" width="24" height="24">
  <path data-name="Rectangle 39" fill="none" d="M0 0h24v24H0z"/>
  <path data-name="Path 51" d="M10.963 7.5h.084a.5.5 0 01.5.45L12 12.5l3.248 1.856a.5.5 0 01.252.434V15a.382.382 0 01-.482.368L10.4 14.109a.5.5 0 01-.367-.521l.433-5.626a.5.5 0 01.497-.462z" fill="#494b74" fill-rule="evenodd"/>
  <path data-name="Path 52" d="M7.39 2.835a10.487 10.487 0 11-6 6.823l1.926.54a8.489 8.489 0 105.433-5.744l1.19 1.42a.5.5 0 01-.355.821l-4.866.275a.5.5 0 01-.518-.615l1.132-4.731a.5.5 0 01.868-.206z" fill="#494b74" fill-rule="evenodd" opacity=".3"/>
</svg>
