<?xml version="1.0" standalone="no"?>
<!DOCTYPE svg PUBLIC "-//W3C//DTD SVG 1.1//EN"
   "http://www.w3.org/Graphics/SVG/1.1/DTD/svg11.dtd">
<svg width="884" height="118" version="1.1"
   xmlns="http://www.w3.org/2000/svg">
   <desc>Kesekretariatan - Struktur Organisasi
   </desc>

   <g id="barcode" fill="#000000">
      <rect x="0" y="0" width="884" height="118" fill="#FFFFFF" />
      <rect x="0.00" y="0.00" width="4.00" height="100.00" />
      <rect x="6.00" y="0.00" width="2.00" height="100.00" />
      <rect x="12.00" y="0.00" width="2.00" height="100.00" />
      <rect x="22.00" y="0.00" width="2.00" height="100.00" />
      <rect x="26.00" y="0.00" width="4.00" height="100.00" />
      <rect x="36.00" y="0.00" width="6.00" height="100.00" />
      <rect x="44.00" y="0.00" width="2.00" height="100.00" />
      <rect x="48.00" y="0.00" width="4.00" height="100.00" />
      <rect x="56.00" y="0.00" width="2.00" height="100.00" />
      <rect x="66.00" y="0.00" width="2.00" height="100.00" />
      <rect x="70.00" y="0.00" width="8.00" height="100.00" />
      <rect x="82.00" y="0.00" width="2.00" height="100.00" />
      <rect x="88.00" y="0.00" width="2.00" height="100.00" />
      <rect x="92.00" y="0.00" width="4.00" height="100.00" />
      <rect x="100.00" y="0.00" width="2.00" height="100.00" />
      <rect x="110.00" y="0.00" width="4.00" height="100.00" />
      <rect x="122.00" y="0.00" width="2.00" height="100.00" />
      <rect x="128.00" y="0.00" width="2.00" height="100.00" />
      <rect x="132.00" y="0.00" width="2.00" height="100.00" />
      <rect x="138.00" y="0.00" width="2.00" height="100.00" />
      <rect x="144.00" y="0.00" width="8.00" height="100.00" />
      <rect x="154.00" y="0.00" width="2.00" height="100.00" />
      <rect x="158.00" y="0.00" width="4.00" height="100.00" />
      <rect x="166.00" y="0.00" width="2.00" height="100.00" />
      <rect x="176.00" y="0.00" width="2.00" height="100.00" />
      <rect x="182.00" y="0.00" width="8.00" height="100.00" />
      <rect x="192.00" y="0.00" width="2.00" height="100.00" />
      <rect x="198.00" y="0.00" width="2.00" height="100.00" />
      <rect x="204.00" y="0.00" width="2.00" height="100.00" />
      <rect x="208.00" y="0.00" width="4.00" height="100.00" />
      <rect x="220.00" y="0.00" width="2.00" height="100.00" />
      <rect x="226.00" y="0.00" width="2.00" height="100.00" />
      <rect x="232.00" y="0.00" width="8.00" height="100.00" />
      <rect x="242.00" y="0.00" width="2.00" height="100.00" />
      <rect x="252.00" y="0.00" width="4.00" height="100.00" />
      <rect x="258.00" y="0.00" width="2.00" height="100.00" />
      <rect x="264.00" y="0.00" width="2.00" height="100.00" />
      <rect x="270.00" y="0.00" width="2.00" height="100.00" />
      <rect x="274.00" y="0.00" width="4.00" height="100.00" />
      <rect x="286.00" y="0.00" width="2.00" height="100.00" />
      <rect x="292.00" y="0.00" width="8.00" height="100.00" />
      <rect x="302.00" y="0.00" width="2.00" height="100.00" />
      <rect x="308.00" y="0.00" width="2.00" height="100.00" />
      <rect x="314.00" y="0.00" width="2.00" height="100.00" />
      <rect x="318.00" y="0.00" width="4.00" height="100.00" />
      <rect x="330.00" y="0.00" width="4.00" height="100.00" />
      <rect x="342.00" y="0.00" width="2.00" height="100.00" />
      <rect x="346.00" y="0.00" width="2.00" height="100.00" />
      <rect x="352.00" y="0.00" width="4.00" height="100.00" />
      <rect x="358.00" y="0.00" width="4.00" height="100.00" />
      <rect x="366.00" y="0.00" width="4.00" height="100.00" />
      <rect x="374.00" y="0.00" width="2.00" height="100.00" />
      <rect x="380.00" y="0.00" width="4.00" height="100.00" />
      <rect x="386.00" y="0.00" width="6.00" height="100.00" />
      <rect x="396.00" y="0.00" width="4.00" height="100.00" />
      <rect x="402.00" y="0.00" width="4.00" height="100.00" />
      <rect x="410.00" y="0.00" width="4.00" height="100.00" />
      <rect x="418.00" y="0.00" width="4.00" height="100.00" />
      <rect x="424.00" y="0.00" width="6.00" height="100.00" />
      <rect x="432.00" y="0.00" width="2.00" height="100.00" />
      <rect x="440.00" y="0.00" width="2.00" height="100.00" />
      <rect x="446.00" y="0.00" width="8.00" height="100.00" />
      <rect x="456.00" y="0.00" width="2.00" height="100.00" />
      <rect x="462.00" y="0.00" width="2.00" height="100.00" />
      <rect x="468.00" y="0.00" width="2.00" height="100.00" />
      <rect x="474.00" y="0.00" width="8.00" height="100.00" />
      <rect x="484.00" y="0.00" width="2.00" height="100.00" />
      <rect x="490.00" y="0.00" width="8.00" height="100.00" />
      <rect x="502.00" y="0.00" width="2.00" height="100.00" />
      <rect x="506.00" y="0.00" width="4.00" height="100.00" />
      <rect x="518.00" y="0.00" width="2.00" height="100.00" />
      <rect x="524.00" y="0.00" width="2.00" height="100.00" />
      <rect x="528.00" y="0.00" width="2.00" height="100.00" />
      <rect x="534.00" y="0.00" width="8.00" height="100.00" />
      <rect x="544.00" y="0.00" width="2.00" height="100.00" />
      <rect x="550.00" y="0.00" width="2.00" height="100.00" />
      <rect x="556.00" y="0.00" width="8.00" height="100.00" />
      <rect x="568.00" y="0.00" width="2.00" height="100.00" />
      <rect x="572.00" y="0.00" width="2.00" height="100.00" />
      <rect x="578.00" y="0.00" width="2.00" height="100.00" />
      <rect x="584.00" y="0.00" width="8.00" height="100.00" />
      <rect x="594.00" y="0.00" width="4.00" height="100.00" />
      <rect x="600.00" y="0.00" width="4.00" height="100.00" />
      <rect x="608.00" y="0.00" width="4.00" height="100.00" />
      <rect x="616.00" y="0.00" width="2.00" height="100.00" />
      <rect x="624.00" y="0.00" width="6.00" height="100.00" />
      <rect x="632.00" y="0.00" width="4.00" height="100.00" />
      <rect x="638.00" y="0.00" width="2.00" height="100.00" />
      <rect x="644.00" y="0.00" width="2.00" height="100.00" />
      <rect x="650.00" y="0.00" width="8.00" height="100.00" />
      <rect x="660.00" y="0.00" width="2.00" height="100.00" />
      <rect x="666.00" y="0.00" width="4.00" height="100.00" />
      <rect x="672.00" y="0.00" width="2.00" height="100.00" />
      <rect x="682.00" y="0.00" width="2.00" height="100.00" />
      <rect x="688.00" y="0.00" width="2.00" height="100.00" />
      <rect x="692.00" y="0.00" width="4.00" height="100.00" />
      <rect x="704.00" y="0.00" width="4.00" height="100.00" />
      <rect x="716.00" y="0.00" width="2.00" height="100.00" />
      <rect x="720.00" y="0.00" width="2.00" height="100.00" />
      <rect x="726.00" y="0.00" width="2.00" height="100.00" />
      <rect x="736.00" y="0.00" width="4.00" height="100.00" />
      <rect x="742.00" y="0.00" width="2.00" height="100.00" />
      <rect x="748.00" y="0.00" width="2.00" height="100.00" />
      <rect x="752.00" y="0.00" width="8.00" height="100.00" />
      <rect x="764.00" y="0.00" width="2.00" height="100.00" />
      <rect x="770.00" y="0.00" width="2.00" height="100.00" />
      <rect x="776.00" y="0.00" width="2.00" height="100.00" />
      <rect x="780.00" y="0.00" width="4.00" height="100.00" />
      <rect x="792.00" y="0.00" width="2.00" height="100.00" />
      <rect x="796.00" y="0.00" width="8.00" height="100.00" />
      <rect x="808.00" y="0.00" width="2.00" height="100.00" />
      <rect x="814.00" y="0.00" width="2.00" height="100.00" />
      <rect x="824.00" y="0.00" width="4.00" height="100.00" />
      <rect x="830.00" y="0.00" width="2.00" height="100.00" />
      <rect x="836.00" y="0.00" width="2.00" height="100.00" />
      <rect x="842.00" y="0.00" width="4.00" height="100.00" />
      <rect x="850.00" y="0.00" width="6.00" height="100.00" />
      <rect x="858.00" y="0.00" width="4.00" height="100.00" />
      <rect x="868.00" y="0.00" width="6.00" height="100.00" />
      <rect x="876.00" y="0.00" width="2.00" height="100.00" />
      <rect x="880.00" y="0.00" width="4.00" height="100.00" />
      <text x="442.00" y="118.00" text-anchor="middle"
         font-family="Helvetica" font-size="16.0" fill="#000000" >
         Kesekretariatan - Struktur Organisasi
      </text>
   </g>
</svg>
