<svg xmlns="http://www.w3.org/2000/svg" width="20.016" height="20">
  <g fill="#494b74">
    <path data-name="Path 43" d="M1.857 0h7.879a1.5 1.5 0 01.969.355l4.764 4.029A1.5 1.5 0 0116 5.529v12.554C16 19.874 15.98 20 14.143 20H1.857C.02 20 0 19.874 0 18.083V1.917C0 .126.02 0 1.857 0z" opacity=".3"/>
    <path data-name="Path 46" d="M19.297 6.067l-5.728 5.728a1.016 1.016 0 01-.725.301l-2.385-.02a1.016 1.016 0 01-1.006-.99l-.059-2.322a1.016 1.016 0 01.297-.743l5.775-5.775a1.016 1.016 0 011.438-.008l2.393 2.393a1.016 1.016 0 010 1.436z"/>
  </g>
</svg>
