<svg xmlns="http://www.w3.org/2000/svg" width="24" height="24">
  <path data-name="Rectangle 38" fill="none" d="M0 0h24v24H0z"/>
  <path data-name="Path 49" d="M4 16h1a1 1 0 010 2H4a1 1 0 010-2zm-3-5h4a1 1 0 010 2H1a1 1 0 010-2zm2-5h2a1 1 0 010 2H3a1 1 0 010-2z" fill="#494b74" fill-rule="evenodd" opacity=".3"/>
  <path data-name="Path 50" d="M10 6h12a2 2 0 012 2v8a2 2 0 01-2 2H10a2 2 0 01-2-2V8a2 2 0 012-2zm11.085 2.072L16 10.719l-5.085-2.647a.632.632 0 00-.841.244.59.59 0 00.252.813l5.379 2.8a.64.64 0 00.589 0l5.379-2.8a.59.59 0 00.252-.813.632.632 0 00-.84-.244z" fill="#494b74" fill-rule="evenodd"/>
</svg>
