<svg xmlns="http://www.w3.org/2000/svg" width="24" height="24.013">
  <path data-name="Rectangle 33" fill="none" d="M0 .013h24v24H0z"/>
  <path data-name="Path 44" d="M5 9.013h14a2 2 0 012 2v9a2 2 0 01-2 2H5a2 2 0 01-2-2v-9a2 2 0 012-2zm13.144 1.84L12 14.161l-6.144-3.308a.75.75 0 00-.711 1.321l6.5 3.5a.75.75 0 00.711 0l6.5-3.5a.75.75 0 00-.711-1.321z" fill="#494b74" fill-rule="evenodd"/>
  <path data-name="Path 45" d="M9.032 4.505h1.956v2.008a.5.5 0 00.5.5h1.023a.5.5 0 00.5-.5V4.505h1.957a.5.5 0 00.382-.823L12.382.176a.5.5 0 00-.763 0L8.65 3.682a.5.5 0 00.382.823z" fill="#494b74" opacity=".3"/>
</svg>
