<svg xmlns="http://www.w3.org/2000/svg" width="24" height="24">
  <path data-name="Rectangle 42" fill="none" d="M0 0h24v24H0z"/>
  <path data-name="Path 59" d="M5 2h14a2 2 0 012 2v2a2 2 0 01-2 2H5a2 2 0 01-2-2V4a2 2 0 012-2zm6 2a1 1 0 000 2h5a1 1 0 000-2zM7 6a1 1 0 10-1-1 1 1 0 001 1z" fill="#494b74" fill-rule="evenodd" opacity=".3"/>
  <path data-name="Path 60" d="M5 9h14a2 2 0 012 2v2a2 2 0 01-2 2H5a2 2 0 01-2-2v-2a2 2 0 012-2zm6 2a1 1 0 000 2h5a1 1 0 000-2zm-4 2a1 1 0 10-1-1 1 1 0 001 1z" fill="#494b74" fill-rule="evenodd"/>
  <path data-name="Path 61" d="M5 16h14a2 2 0 012 2v2a2 2 0 01-2 2H5a2 2 0 01-2-2v-2a2 2 0 012-2zm6 2a1 1 0 000 2h5a1 1 0 000-2zm-4 2a1 1 0 10-1-1 1 1 0 001 1z" fill="#494b74" fill-rule="evenodd"/>
</svg>
