<svg xmlns="http://www.w3.org/2000/svg" width="24" height="24">
  <path data-name="Path 20" d="M0 0h24v24H0z" fill="none"/>
  <path data-name="Path 21" d="M5.857 2h7.879a1.5 1.5 0 01.969.355l4.764 4.029A1.5 1.5 0 0120 7.529v12.554C20 21.874 19.98 22 18.143 22H5.857C4.02 22 4 21.874 4 20.083V3.917C4 2.126 4.02 2 5.857 2z" fill="#494b74" opacity=".3"/>
  <path data-name="Path 28" d="M3.5 5h5a1.5 1.5 0 010 3h-5a1.5 1.5 0 010-3zm0 12h5a1.5 1.5 0 010 3h-5a1.5 1.5 0 010-3zm-2-6h4a1.5 1.5 0 010 3h-4a1.5 1.5 0 010-3z" fill="#494b74" fill-rule="evenodd"/>
</svg>
