<svg xmlns="http://www.w3.org/2000/svg" width="24" height="24">
  <path data-name="Path 55" d="M0 0h24v24H0z" fill="none"/>
  <path data-name="Path 56" d="M5.857 2h7.879a1.5 1.5 0 01.969.355l4.764 4.029A1.5 1.5 0 0120 7.529v12.554C20 21.874 19.98 22 18.143 22H5.857C4.02 22 4 21.874 4 20.083V3.917C4 2.126 4.02 2 5.857 2z" fill="#494b74" opacity=".3"/>
  <path data-name="Path 57" d="M14.5 12a1 1 0 011 1v3a1 1 0 01-1 1h-5a1 1 0 01-1-1v-3a1 1 0 011-1v-.5a2.5 2.5 0 015 0zM12 10a1.5 1.5 0 00-1.5 1.5v.5h3v-.5A1.5 1.5 0 0012 10z" fill="#494b74" fill-rule="evenodd"/>
</svg>
