<svg xmlns="http://www.w3.org/2000/svg" width="24" height="24">
  <path data-name="Path 25" d="M4.857 1h7.879a1.5 1.5 0 01.969.355l4.764 4.029A1.5 1.5 0 0119 6.529v12.554C19 20.874 18.98 21 17.143 21H4.857C3.02 21 3 20.874 3 19.083V2.917C3 1.126 3.02 1 4.857 1z" fill="#494b74" opacity=".3"/>
  <path data-name="Rectangle 21" fill="none" d="M0 0h24v24H0z"/>
  <path data-name="Path 23" d="M17.447 20.138a.8.8 0 011.128-1.128l3.191 3.191a.8.8 0 01-1.128 1.128z" fill="#494b74"/>
  <path data-name="Path 24" d="M14.82 19.574a3.989 3.989 0 10-3.985-3.989 3.989 3.989 0 003.985 3.989zm0 1.6a5.585 5.585 0 115.585-5.585 5.585 5.585 0 01-5.585 5.58z" fill="#494b74"/>
</svg>
