<svg xmlns="http://www.w3.org/2000/svg" width="24" height="24"><path data-name="Rectangle 43" fill="none" d="M0 0h24v24H0z"/><path data-name="Path 62" d="M18.622 9.75h.128a2.25 2.25 0 010 4.5h-.065a.5.5 0 00-.358.835l.045.045a2.251 2.251 0 11-3.183 3.183l-.039-.039a.5.5 0 00-.841.349v.128a2.25 2.25 0 01-4.5 0 .524.524 0 00-.363-.514.485.485 0 00-.532.092l-.045.045a2.251 2.251 0 11-3.182-3.184l.039-.039a.5.5 0 00-.349-.841H5.25a2.25 2.25 0 010-4.5.524.524 0 00.514-.363.485.485 0 00-.092-.532l-.045-.045A2.251 2.251 0 118.81 5.687l.039.039a.487.487 0 00.538.1l.108-.026a.486.486 0 00.255-.424V5.25a2.25 2.25 0 014.5 0v.065a.491.491 0 00.3.449.485.485 0 00.532-.092l.045-.045a2.251 2.251 0 113.186 3.183l-.039.039a.488.488 0 00-.1.538l.023.108a.486.486 0 00.425.255z" fill="#494b74" opacity=".3"/><path data-name="Path 63" d="M12 15a3 3 0 10-3-3 3 3 0 003 3z" fill="#494b74" fill-rule="evenodd"/></svg>